<svg width="24" height="24" viewBox="0 0 24 24" fill="none" xmlns="http://www.w3.org/2000/svg">
  <path fill-rule="evenodd" clip-rule="evenodd" d="M4.15918 10.4919C4.15918 6.16142 7.66973 2.65088 12.0002 2.65088C16.3307 2.65088 19.8412 6.16143 19.8412 10.4919V16.1782H20.2949C20.7644 16.1782 21.1449 16.5588 21.1449 17.0282C21.1449 17.4977 20.7644 17.8782 20.2949 17.8782H16.2329C16.0671 18.7081 15.6595 19.4775 15.0523 20.0847C14.2428 20.8942 13.145 21.3489 12.0003 21.3489C10.8555 21.3489 9.75771 20.8942 8.94826 20.0847C8.34106 19.4775 7.93346 18.7081 7.76768 17.8782H3.70547C3.23603 17.8782 2.85547 17.4977 2.85547 17.0282C2.85547 16.5588 3.23603 16.1782 3.70547 16.1782H4.15918V10.4919ZM12.0002 4.35088C8.60861 4.35088 5.85918 7.10031 5.85918 10.4919V16.1307H18.1412V10.4919C18.1412 7.10031 15.3918 4.35088 12.0002 4.35088ZM14.4745 17.8827H9.52601C9.65416 18.2557 9.86619 18.5985 10.1503 18.8827C10.641 19.3733 11.3064 19.6489 12.0003 19.6489C12.6941 19.6489 13.3596 19.3733 13.8502 18.8827C14.1343 18.5985 14.3464 18.2557 14.4745 17.8827Z" fill="#333333"/>
</svg>