<svg xmlns="http://www.w3.org/2000/svg" width="96" height="32" viewBox="0 0 96 32" fill="none">
  <g clip-path="url(#clip0_17730_5464)">
    <path d="M13.0052 16.4036C12.5488 12.2434 16.8988 8.90173 22.7252 8.95253C28.5516 8.99769 33.6454 12.4071 34.1019 16.5616C34.5583 20.7274 30.2082 24.0578 24.3818 24.0127C18.5555 23.9732 13.4616 20.5638 13.0052 16.4036ZM35.1894 17.6962C34.6653 12.5369 28.7995 8.30903 22.0941 8.25258C15.3831 8.19614 10.3794 12.3337 10.9034 17.493C11.4274 22.6523 17.2933 26.8802 23.9987 26.9367C30.7041 26.9875 35.719 22.8555 35.1894 17.6962Z" fill="#FAB585"/>
    <path d="M25.0636 27.0383C21.7617 30.4985 16.4593 30.7864 13.2193 27.6818C9.98493 24.5772 10.0356 19.2598 13.3433 15.8053C16.6453 12.3507 21.9532 12.0628 25.182 15.1618C28.4163 18.2664 28.3656 23.5837 25.058 27.0383M12.8192 15.6924C8.98194 19.7114 8.91996 25.8924 12.6784 29.4994C16.4368 33.1064 22.6012 32.7733 26.4385 28.7543C30.2815 24.7352 30.3434 18.5542 26.5794 14.9473C22.821 11.3403 16.6565 11.6733 12.8136 15.6924" fill="#F79C6B"/>
    <path d="M13.1797 2.75462C20.0485 0.174976 26.844 2.78284 28.3542 8.57999C29.8643 14.3771 25.5199 21.1734 18.651 23.7474C11.7822 26.327 4.98667 23.7192 3.47654 17.922C1.96078 12.1249 6.31084 5.33426 13.1797 2.75462ZM6.80107 4.973C-0.326943 10.6234 -2.14135 18.8139 2.74402 23.2619C7.63502 27.7156 17.372 26.7391 24.5056 21.0831C31.6336 15.4327 33.448 7.24218 28.557 2.78849C23.666 -1.65956 13.9235 -0.683024 6.80107 4.96736" fill="#F37321"/>
    <path d="M47.8847 12.5877H40.0186V11.329H47.8847V12.5877ZM43.9516 18.1252C42.9543 18.1252 42.1485 17.8712 41.523 17.3688C40.8976 16.8665 40.5877 16.2625 40.5877 15.5625C40.5877 14.8626 40.8976 14.2699 41.523 13.7675C42.1485 13.2651 42.9543 13.0111 43.9516 13.0111C44.949 13.0111 45.7548 13.2651 46.3802 13.7675C47.0057 14.2699 47.3156 14.8682 47.3156 15.5625C47.3156 16.2568 47.0057 16.8665 46.3802 17.3688C45.7548 17.8712 44.949 18.1252 43.9516 18.1252ZM44.5489 21.0266H51.3501V22.3757H44.1263C42.5655 22.3757 41.7879 21.6475 41.7879 20.1912V18.7857H43.5403V19.988C43.5403 20.6823 43.8784 21.0266 44.5489 21.0266ZM41.9344 9.60168H45.9689V10.8774H41.9344V9.60168ZM43.9516 16.8947C44.4081 16.8947 44.8025 16.7705 45.1293 16.5165C45.4561 16.2625 45.6195 15.9464 45.6195 15.5625C45.6195 15.1787 45.4561 14.8795 45.1293 14.6255C44.8025 14.3715 44.4081 14.2473 43.9516 14.2473C43.4952 14.2473 43.1008 14.3771 42.774 14.6255C42.4472 14.8795 42.2837 15.19 42.2837 15.5625C42.2837 15.9351 42.4472 16.2625 42.774 16.5165C43.1008 16.7705 43.4952 16.8947 43.9516 16.8947ZM51.2938 13.045H53.1082V14.4223H51.2938V18.859H49.5526V9.82183H51.2938V13.045Z" fill="black"/>
    <path d="M57.6665 18.0519C57.0411 17.9446 56.5114 17.7132 56.0719 17.3519C55.469 16.8552 55.1647 16.2568 55.1647 15.5625C55.1647 14.8682 55.4746 14.2699 56.1 13.7675C56.7255 13.2651 57.5313 13.0111 58.5286 13.0111C59.526 13.0111 60.3318 13.2651 60.9572 13.7675C61.5827 14.2699 61.8926 14.8682 61.8926 15.5625C61.8926 16.2568 61.5883 16.8495 60.9854 17.3519C60.5572 17.7019 60.0331 17.939 59.4189 18.0519V19.384H61.3629C63.1154 19.384 63.9944 18.7066 63.9944 17.3463V9.81618H65.7356V14.0328H67.55V15.4271H65.7356V22.3983H63.9944V20.0388C63.4704 20.5073 62.6871 20.7387 61.656 20.7387H54.2856V19.3784H57.6609V18.0462L57.6665 18.0519ZM62.4336 12.5877H54.5674V11.329H62.4336V12.5877ZM56.5114 9.60168H60.5459V10.8774H56.5114V9.60168ZM58.5286 16.8947C58.9851 16.8947 59.3795 16.7705 59.7063 16.5165C60.0331 16.2625 60.1965 15.9464 60.1965 15.5625C60.1965 15.1787 60.0331 14.8795 59.7063 14.6255C59.3795 14.3715 58.9851 14.2473 58.5286 14.2473C58.0722 14.2473 57.6778 14.3771 57.351 14.6255C57.0242 14.8795 56.8607 15.19 56.8607 15.5625C56.8607 15.9351 57.0242 16.2625 57.351 16.5165C57.6778 16.7705 58.0722 16.8947 58.5286 16.8947Z" fill="black"/>
    <path d="M81.5582 16.3528V17.7301H68.7334V16.3528H74.2442V14.5634H76.0305V16.3528H81.5582ZM76.0305 9.95167C76.0305 10.9677 76.5207 11.8652 77.5068 12.6442C78.4534 13.395 79.5071 13.8183 80.6679 13.9199V15.2408C79.2761 15.2013 77.9012 14.7384 76.5432 13.8465C75.9685 13.474 75.5064 13.0563 75.1571 12.5878C74.7964 13.0563 74.3287 13.474 73.754 13.8465C72.4016 14.7328 71.0268 15.2013 69.6293 15.2408V13.9199C70.7901 13.824 71.8438 13.395 72.7848 12.6442C73.7709 11.8652 74.2611 10.9621 74.2611 9.95167V9.85007H76.0305V9.95167ZM73.0496 21.0097H80.172V22.3701H72.4974C71.0155 22.3701 70.2773 21.5968 70.2773 20.0445V18.5486H72.0298V19.8977C72.0298 20.6372 72.3735 21.0097 73.0553 21.0097H73.0496Z" fill="black"/>
    <path d="M94.4223 17.2447H90.4724V19.7058H96.0001V21.1H83.1753V19.7058H88.6861V17.2447H86.7139C85.2207 17.2447 84.4769 16.4996 84.4769 15.0037V10.1097H86.2181V12.3337H92.6812V10.1097H94.4223V17.2447ZM92.6812 15.8843V13.6885H86.2181V14.9472C86.2181 15.5738 86.5336 15.8843 87.1704 15.8843H92.6812Z" fill="black"/>
  </g>
  <defs>
    <clipPath id="clip0_17730_5464">
      <rect width="96" height="32" fill="white"/>
    </clipPath>
  </defs>
</svg>