<svg xmlns="http://www.w3.org/2000/svg" width="20" height="20" viewBox="0 0 20 20" fill="none">
  <path d="M9.99984 18.3333C14.6022 18.3333 18.3332 14.6024 18.3332 10C18.3332 5.39762 14.6022 1.66666 9.99984 1.66666C5.39746 1.66666 1.6665 5.39762 1.6665 10C1.6665 14.6024 5.39746 18.3333 9.99984 18.3333Z" fill="#EEEEEE"/>
  <path d="M10 14.1208C10.3417 14.1208 10.625 13.8375 10.625 13.4958V9.32916C10.625 8.9875 10.3417 8.70416 10 8.70416C9.65833 8.70416 9.375 8.9875 9.375 9.32916V13.4958C9.375 13.8375 9.65833 14.1208 10 14.1208Z" fill="#999999"/>
  <path d="M10.7665 6.55416C10.7248 6.45416 10.6665 6.3625 10.5915 6.27916C10.5082 6.20416 10.4165 6.14583 10.3165 6.10416C10.1165 6.02083 9.88317 6.02083 9.68317 6.10416C9.58317 6.14583 9.4915 6.20416 9.40817 6.27916C9.33317 6.3625 9.27484 6.45416 9.23317 6.55416C9.1915 6.65416 9.1665 6.7625 9.1665 6.87083C9.1665 6.97916 9.1915 7.0875 9.23317 7.1875C9.27484 7.29583 9.33317 7.37916 9.40817 7.4625C9.4915 7.5375 9.58317 7.59583 9.68317 7.6375C9.78317 7.67916 9.8915 7.70416 9.99984 7.70416C10.1082 7.70416 10.2165 7.67916 10.3165 7.6375C10.4165 7.59583 10.5082 7.5375 10.5915 7.4625C10.6665 7.37916 10.7248 7.29583 10.7665 7.1875C10.8082 7.0875 10.8332 6.97916 10.8332 6.87083C10.8332 6.7625 10.8082 6.65416 10.7665 6.55416Z" fill="#999999"/>
</svg>