<svg xmlns="http://www.w3.org/2000/svg" width="24" height="24" viewBox="0 0 24 24" fill="none">
  <path fill-rule="evenodd" clip-rule="evenodd" d="M10.7393 5.08351C7.66088 5.08351 5.16533 7.57906 5.16533 10.6575C5.16533 13.7359 7.66088 16.2314 10.7393 16.2314C13.8177 16.2314 16.3133 13.7359 16.3133 10.6575C16.3133 7.57906 13.8177 5.08351 10.7393 5.08351ZM3.46533 10.6575C3.46533 6.64018 6.722 3.38351 10.7393 3.38351C14.7566 3.38351 18.0133 6.64018 18.0133 10.6575C18.0133 12.3805 17.4142 13.9635 16.413 15.2098L20.9217 19.7186C21.2536 20.0505 21.2536 20.5887 20.9216 20.9207C20.5897 21.2526 20.0515 21.2526 19.7196 20.9206L15.2015 16.4024C13.9695 17.3607 12.421 17.9314 10.7393 17.9314C6.722 17.9314 3.46533 14.6748 3.46533 10.6575Z" fill="#333333"/>
</svg>